HIERARCHY
ROOT Hips
{
	OFFSET 0.000000 83.214638 0.000000
	CHANNELS 6 Xposition Yposition Zposition Xrotation Yrotation Zrotation
	JOINT Pelvis
	{
		OFFSET 0.000000 0.000000 0.000000
		CHANNELS 3 Xrotation Yrotation Zrotation
		JOINT LeftUpLeg
		{
			OFFSET 8.479700 -4.795502 -0.379100
			CHANNELS 3 Xrotation Yrotation Zrotation
			JOINT LeftLeg
			{
				OFFSET 0.024144 -32.555107 0.112900
				CHANNELS 3 Xrotation Yrotation Zrotation
				JOINT LeftFoot
				{
					OFFSET -0.024144 -32.638630 -3.012600
					CHANNELS 3 Xrotation Yrotation Zrotation
					JOINT LeftToeBase
					{
						OFFSET 0.970200 -13.225400 11.864200
						CHANNELS 3 Xrotation Yrotation Zrotation
						End Site
						{
							OFFSET 0.000000 12.319262 0.000000
						}
					}
					JOINT LFootTongue
					{
						OFFSET 1.142400 -1.059800 6.665200
						CHANNELS 3 Xrotation Yrotation Zrotation
						End Site
						{
							OFFSET 0.000000 12.319262 0.000000
						}
					}
				}
				JOINT LeftPantLeg
				{
					OFFSET 0.918482 -16.533964 -2.284700
					CHANNELS 3 Xrotation Yrotation Zrotation
					End Site
					{
						OFFSET 0.350399 24.744368 0.000000
					}
				}
			}
		}
		JOINT RightUpLeg
		{
			OFFSET -8.479700 -4.795502 -0.379100
			CHANNELS 3 Xrotation Yrotation Zrotation
			JOINT RightLeg
			{
				OFFSET -0.023144 -32.555092 0.112900
				CHANNELS 3 Xrotation Yrotation Zrotation
				JOINT RightFoot
				{
					OFFSET 0.023144 -32.638641 -3.012700
					CHANNELS 3 Xrotation Yrotation Zrotation
					JOINT RightToeBase
					{
						OFFSET -0.970200 -13.225400 11.864200
						CHANNELS 3 Xrotation Yrotation Zrotation
						End Site
						{
							OFFSET 0.000000 12.319244 0.000000
						}
					}
					JOINT RFootTongue
					{
						OFFSET -1.142200 -1.059800 6.665200
						CHANNELS 3 Xrotation Yrotation Zrotation
						End Site
						{
							OFFSET 0.000000 12.319243 0.000000
						}
					}
				}
				JOINT RightPantLeg
				{
					OFFSET -0.919482 -16.533978 -2.284800
					CHANNELS 3 Xrotation Yrotation Zrotation
					End Site
					{
						OFFSET -0.350400 24.744419 0.000000
					}
				}
			}
		}
	}
	JOINT Spine
	{
		OFFSET 0.000000 7.722000 1.166200
		CHANNELS 3 Xrotation Yrotation Zrotation
		JOINT Spine1
		{
			OFFSET 0.000000 12.024101 0.248800
			CHANNELS 3 Xrotation Yrotation Zrotation
			JOINT Spine2
			{
				OFFSET 0.000000 11.502998 -0.491200
				CHANNELS 3 Xrotation Yrotation Zrotation
				JOINT Neck
				{
					OFFSET 0.000000 18.430702 -3.123100
					CHANNELS 3 Xrotation Yrotation Zrotation
					JOINT Head
					{
						OFFSET 0.000000 9.051102 1.034000
						CHANNELS 3 Xrotation Yrotation Zrotation
						JOINT HairB
						{
							OFFSET 0.208400 24.786102 24.822300
							CHANNELS 3 Xrotation Yrotation Zrotation
							End Site
							{
								OFFSET 0.000000 32.263779 0.000000
							}
						}
						JOINT HairA
						{
							OFFSET -7.081100 24.428299 23.196600
							CHANNELS 3 Xrotation Yrotation Zrotation
							End Site
							{
								OFFSET 0.000000 32.263779 0.000000
							}
						}
						JOINT Hat
						{
							OFFSET 16.728800 15.048294 -15.439601
							CHANNELS 3 Xrotation Yrotation Zrotation
							End Site
							{
								OFFSET 0.000000 32.263779 0.000000
							}
						}
					}
				}
				JOINT LeftShoulder
				{
					OFFSET 6.197800 13.665199 -4.064700
					CHANNELS 3 Xrotation Yrotation Zrotation
					JOINT LeftArm
					{
						OFFSET 7.778100 -0.187103 -1.709300
						CHANNELS 3 Xrotation Yrotation Zrotation
						JOINT LeftForeArm
						{
							OFFSET 22.049376 0.000000 0.000000
							CHANNELS 3 Xrotation Yrotation Zrotation
							JOINT LeftHand
							{
								OFFSET 23.009392 0.000000 0.000000
								CHANNELS 3 Xrotation Yrotation Zrotation
								JOINT LeftHandThumb1
								{
									OFFSET 3.507191 -2.063065 3.133727
									CHANNELS 3 Xrotation Yrotation Zrotation
									JOINT LeftHandThumb2
									{
										OFFSET 3.101337 -1.790558 1.790558
										CHANNELS 3 Xrotation Yrotation Zrotation
										JOINT LeftHandThumb3
										{
											OFFSET 3.058640 -1.765907 1.765906
											CHANNELS 3 Xrotation Yrotation Zrotation
											End Site
											{
												OFFSET -0.415260 3.926476 -0.049563
											}
										}
									}
								}
								JOINT LeftHandIndex1
								{
									OFFSET 11.334419 -0.901459 3.706815
									CHANNELS 3 Xrotation Yrotation Zrotation
									JOINT LeftHandIndex2
									{
										OFFSET 3.283112 0.000000 0.000000
										CHANNELS 3 Xrotation Yrotation Zrotation
										JOINT LeftHandIndex3
										{
											OFFSET 3.323853 0.000000 0.000000
											CHANNELS 3 Xrotation Yrotation Zrotation
											End Site
											{
												OFFSET -1.135597 3.097809 0.402452
											}
										}
									}
								}
								JOINT LeftHandMiddle1
								{
									OFFSET 11.335861 0.000000 0.000000
									CHANNELS 3 Xrotation Yrotation Zrotation
									JOINT LeftHandMiddle2
									{
										OFFSET 3.410492 0.000000 0.000000
										CHANNELS 3 Xrotation Yrotation Zrotation
										JOINT LeftHandMiddle3
										{
											OFFSET 3.312172 0.000000 0.000000
											CHANNELS 3 Xrotation Yrotation Zrotation
											End Site
											{
												OFFSET -1.150200 3.080154 0.400270
											}
										}
									}
								}
								JOINT LeftHandRing1
								{
									OFFSET 11.514786 -0.013176 -3.003090
									CHANNELS 3 Xrotation Yrotation Zrotation
									JOINT LeftHandRing2
									{
										OFFSET 3.053307 0.000000 0.000000
										CHANNELS 3 Xrotation Yrotation Zrotation
										JOINT LeftHandRing3
										{
											OFFSET 3.295807 0.000000 0.000000
											CHANNELS 3 Xrotation Yrotation Zrotation
											End Site
											{
												OFFSET -1.281006 3.013344 0.375733
											}
										}
									}
								}
								JOINT LeftHandPinky1
								{
									OFFSET 10.518692 -0.960396 -5.730441
									CHANNELS 3 Xrotation Yrotation Zrotation
									JOINT LeftHandPinky2
									{
										OFFSET 2.861649 0.000000 0.000000
										CHANNELS 3 Xrotation Yrotation Zrotation
										JOINT LeftHandPinky3
										{
											OFFSET 2.863380 0.000000 0.000000
											CHANNELS 3 Xrotation Yrotation Zrotation
											End Site
											{
												OFFSET -0.843597 2.711159 0.369971
											}
										}
									}
								}
							}
							JOINT LSleeve
							{
								OFFSET 6.676277 -0.344902 -1.011730
								CHANNELS 3 Xrotation Yrotation Zrotation
								End Site
								{
									OFFSET 0.000000 14.885353 0.000000
								}
							}
						}
					}
				}
				JOINT RightShoulder
				{
					OFFSET -6.197800 13.665199 -4.064700
					CHANNELS 3 Xrotation Yrotation Zrotation
					JOINT RightArm
					{
						OFFSET -7.778100 -0.187103 -1.709300
						CHANNELS 3 Xrotation Yrotation Zrotation
						JOINT RightForeArm
						{
							OFFSET -22.049376 0.000000 0.000000
							CHANNELS 3 Xrotation Yrotation Zrotation
							JOINT RightHand
							{
								OFFSET -23.009392 0.000000 0.000000
								CHANNELS 3 Xrotation Yrotation Zrotation
								JOINT RightHandThumb1
								{
									OFFSET -3.507191 -2.063065 3.133727
									CHANNELS 3 Xrotation Yrotation Zrotation
									JOINT RightHandThumb2
									{
										OFFSET -3.101337 -1.790558 1.790558
										CHANNELS 3 Xrotation Yrotation Zrotation
										JOINT RightHandThumb3
										{
											OFFSET -3.058640 -1.765907 1.765906
											CHANNELS 3 Xrotation Yrotation Zrotation
											End Site
											{
												OFFSET 0.415260 3.926476 -0.049563
											}
										}
									}
								}
								JOINT RightHandIndex1
								{
									OFFSET -11.334419 -0.901459 3.706815
									CHANNELS 3 Xrotation Yrotation Zrotation
									JOINT RightHandIndex2
									{
										OFFSET -3.283112 0.000000 0.000000
										CHANNELS 3 Xrotation Yrotation Zrotation
										JOINT RightHandIndex3
										{
											OFFSET -3.323853 0.000000 0.000000
											CHANNELS 3 Xrotation Yrotation Zrotation
											End Site
											{
												OFFSET 1.135597 3.097809 0.402452
											}
										}
									}
								}
								JOINT RightHandMiddle1
								{
									OFFSET -11.335861 0.000000 0.000000
									CHANNELS 3 Xrotation Yrotation Zrotation
									JOINT RightHandMiddle2
									{
										OFFSET -3.410492 0.000000 0.000000
										CHANNELS 3 Xrotation Yrotation Zrotation
										JOINT RightHandMiddle3
										{
											OFFSET -3.312172 0.000000 0.000000
											CHANNELS 3 Xrotation Yrotation Zrotation
											End Site
											{
												OFFSET 1.150200 3.080154 0.400270
											}
										}
									}
								}
								JOINT RightHandRing1
								{
									OFFSET -11.514786 -0.013176 -3.003090
									CHANNELS 3 Xrotation Yrotation Zrotation
									JOINT RightHandRing2
									{
										OFFSET -3.053307 0.000000 0.000000
										CHANNELS 3 Xrotation Yrotation Zrotation
										JOINT RightHandRing3
										{
											OFFSET -3.295807 0.000000 0.000000
											CHANNELS 3 Xrotation Yrotation Zrotation
											End Site
											{
												OFFSET 1.281006 3.013344 0.375733
											}
										}
									}
								}
								JOINT RightHandPinky1
								{
									OFFSET -10.518692 -0.960396 -5.730441
									CHANNELS 3 Xrotation Yrotation Zrotation
									JOINT RightHandPinky2
									{
										OFFSET -2.861649 0.000000 0.000000
										CHANNELS 3 Xrotation Yrotation Zrotation
										JOINT RightHandPinky3
										{
											OFFSET -2.863380 0.000000 0.000000
											CHANNELS 3 Xrotation Yrotation Zrotation
											End Site
											{
												OFFSET 0.843597 2.711159 0.369971
											}
										}
									}
								}
							}
							JOINT RSleeve
							{
								OFFSET -6.676277 -0.344902 -1.011730
								CHANNELS 3 Xrotation Yrotation Zrotation
								End Site
								{
									OFFSET 0.000000 14.885353 0.000000
								}
							}
						}
					}
				}
				JOINT Backpack
				{
					OFFSET 0.000000 -2.471497 36.677502
					CHANNELS 3 Xrotation Yrotation Zrotation
					End Site
					{
						OFFSET 0.000000 20.427315 0.000000
					}
				}
				JOINT Hood
				{
					OFFSET 0.000000 18.754097 -10.431000
					CHANNELS 3 Xrotation Yrotation Zrotation
					JOINT Hood1
					{
						OFFSET 0.000000 -5.011002 -7.685901
						CHANNELS 3 Xrotation Yrotation Zrotation
						End Site
						{
							OFFSET 0.000000 9.175140 0.000000
						}
					}
				}
				JOINT LHoodieString
				{
					OFFSET 5.250500 16.397697 3.089900
					CHANNELS 3 Xrotation Yrotation Zrotation
					JOINT LHoodieString1
					{
						OFFSET 0.257700 -6.364304 3.694600
						CHANNELS 3 Xrotation Yrotation Zrotation
						JOINT LHoodieString2
						{
							OFFSET 0.000000 -9.643799 2.679100
							CHANNELS 3 Xrotation Yrotation Zrotation
							End Site
							{
								OFFSET 0.000000 10.009018 0.000000
							}
						}
					}
				}
				JOINT RHoodieString
				{
					OFFSET -5.250500 16.397697 3.089900
					CHANNELS 3 Xrotation Yrotation Zrotation
					JOINT RHoodieString1
					{
						OFFSET -0.257700 -6.364304 3.694600
						CHANNELS 3 Xrotation Yrotation Zrotation
						JOINT RHoodieString2
						{
							OFFSET 0.000000 -9.643799 2.679100
							CHANNELS 3 Xrotation Yrotation Zrotation
							End Site
							{
								OFFSET 0.000000 10.009018 0.000000
							}
						}
					}
				}
			}
			JOINT LBackpack_Strap
			{
				OFFSET 15.223200 -7.719803 -6.610900
				CHANNELS 3 Xrotation Yrotation Zrotation
				End Site
				{
					OFFSET 0.000000 16.040596 0.000000
				}
			}
			JOINT RBackpack_Strap
			{
				OFFSET -15.223000 -7.719803 -6.610900
				CHANNELS 3 Xrotation Yrotation Zrotation
				End Site
				{
					OFFSET 0.000000 16.040596 0.000000
				}
			}
		}
	}
	JOINT BoyFacialAnim_Joint
	{
		OFFSET 1.000000 -82.208099 -1.550900
		CHANNELS 3 Xrotation Yrotation Zrotation
		End Site
		{
			OFFSET 0.000000 30.012791 0.000000
		}
	}
}
MOTION
Frames: 5
Frame Time: 0.016667
3.359872 75.876213 94.264992 4.445415 -6.126885 -3.314649 -0.000000 0.000000 -0.000000 -48.398645 9.336525 9.975935 36.703483 -6.580411 3.183746 -1.547255 -13.816323 -2.724667 0.000001 -0.000001 -0.000000 0.000001 -0.000001 -0.000000 -0.000000 0.000000 -0.000000 -23.379119 2.868934 7.473017 47.306963 3.666633 -2.336715 -27.308546 -1.182498 -0.057126 0.000000 -0.000000 -0.000000 0.000000 -0.000000 -0.000000 0.000003 -0.000000 -0.000000 16.216472 3.409024 1.688229 20.044450 7.628497 3.273777 19.863228 7.768540 3.728083 -47.889946 28.030584 -28.867187 36.505387 -35.951015 36.350321 0.000001 -0.000001 0.000000 0.000001 -0.000001 0.000000 0.000001 -0.000001 0.000000 -3.629729 -15.408601 -10.382902 -11.971360 6.480785 -65.205091 -0.000015 -64.653915 -0.000004 10.348438 11.182150 -5.507172 40.231563 -29.869684 63.220648 101.357159 66.798068 231.385772 0.000000 0.000000 -0.000003 0.326282 4.094618 -16.584174 0.575167 2.533367 -25.578743 -0.000003 0.000001 -0.000002 -1.060368 2.730914 -36.207540 1.715303 4.142491 -44.971803 0.000000 -0.000001 -0.000005 -3.216822 3.157195 -55.387787 2.284628 4.641482 -52.395843 -0.000000 0.000000 -0.000002 -4.251963 3.052447 -58.936972 2.013186 4.419838 -48.960490 0.000001 -0.000001 0.000001 -0.000001 -0.000000 -0.000001 -0.264769 19.358402 4.692118 -45.642743 8.432333 36.901466 -0.000011 101.974513 0.000006 -5.090093 -12.734907 15.640853 33.081772 30.015236 -8.052849 13.702148 -51.628454 20.266380 -0.000000 0.000000 -0.000007 0.112182 -3.191142 17.097155 3.780009 -4.574003 79.132045 0.000000 -0.000002 0.000005 2.613392 -8.387978 27.063300 5.675773 -4.544644 102.647109 0.000001 0.000000 0.000002 1.668052 -5.863646 57.331536 4.190490 -4.633772 84.242501 -0.000000 -0.000001 -0.000001 1.874834 -6.023800 60.182457 3.825257 -4.582441 79.698889 -0.000000 -0.000000 0.000000 -0.000001 -0.000000 -0.000001 -0.000001 0.000001 0.000000 -0.000001 0.000001 0.000000 -0.000001 0.000001 0.000000 -0.000001 0.000001 0.000000 -0.000001 0.000001 0.000000 -0.000001 0.000001 0.000000 -0.000001 0.000001 0.000000 -0.000001 0.000001 0.000000 -0.000001 0.000001 0.000000 0.000001 -0.000000 0.000000 0.000001 -0.000000 0.000000 -0.000000 0.000000 -0.000000 
3.145903 76.020569 93.542229 3.552181 -6.355150 -3.755128 -0.000000 0.000000 -0.000001 -47.809897 9.435551 10.765010 36.809447 -6.364197 3.510937 -3.560689 -11.109469 -3.207180 0.000000 -0.000001 -0.000000 0.000000 -0.000001 -0.000000 -0.000000 -0.000000 -0.000000 -22.688353 2.605923 7.778503 46.510481 3.918812 -2.064551 -26.760435 -0.927340 -0.238620 -0.000000 0.000000 -0.000000 -0.000000 0.000000 -0.000000 -0.000002 0.000000 -0.000000 16.029477 3.417212 1.811615 19.617236 7.612217 3.331497 19.436456 7.747064 3.778475 -47.550650 27.672098 -28.991377 38.119248 -35.320657 37.422746 0.000000 0.000000 -0.000000 0.000000 0.000000 -0.000000 0.000000 0.000000 -0.000000 -3.381576 -14.879789 -10.335926 -13.224301 6.607391 -66.021879 -0.000008 -61.657730 -0.000015 11.729649 10.831203 -6.290850 40.231563 -29.869684 63.220654 101.357139 66.798096 231.385772 -0.000002 0.000002 0.000002 0.332587 4.115501 -16.628119 0.574479 2.531948 -25.563264 -0.000001 0.000000 -0.000004 -1.056181 2.737766 -36.217013 1.715066 4.142259 -44.968514 -0.000001 -0.000002 -0.000005 -3.220691 3.154182 -55.385683 2.283634 4.640718 -52.383545 -0.000001 -0.000002 0.000001 -4.265358 3.043546 -58.932962 2.013851 4.420415 -48.969147 0.000001 0.000000 -0.000000 0.000000 0.000002 0.000001 -0.354248 18.524218 5.452754 -46.329641 9.134352 35.856089 0.000071 102.007782 -0.000056 -4.606145 -14.524221 16.388245 33.376522 32.501025 -7.034578 15.577920 -52.554276 22.116853 -0.000002 -0.000000 -0.000004 0.230081 -3.590279 18.982730 3.761844 -4.570494 78.904066 -0.000000 0.000001 0.000000 2.920879 -8.736742 28.390127 5.675517 -4.544712 102.644042 0.000001 -0.000000 0.000002 1.674771 -5.879984 58.233100 4.191140 -4.633843 84.251039 -0.000000 -0.000001 0.000004 1.781905 -5.983827 61.063469 3.804127 -4.578549 79.434171 -0.000000 -0.000000 -0.000002 0.000001 -0.000001 0.000002 0.000003 0.000000 -0.000001 0.000003 0.000000 -0.000001 0.000003 0.000000 -0.000001 0.000003 0.000000 -0.000001 0.000003 0.000000 -0.000000 0.000003 -0.000001 -0.000000 0.000003 0.000000 -0.000001 0.000003 0.000000 -0.000000 0.000003 -0.000001 -0.000000 0.000000 -0.000000 0.000000 0.000000 -0.000000 0.000000 -0.000000 0.000000 -0.000001 
2.943197 76.150932 92.840157 2.647928 -6.463433 -4.129000 -0.000000 0.000000 -0.000000 -47.249510 9.777156 11.497759 37.162195 -6.410846 3.845338 -5.995153 -8.220764 -3.381631 -0.000000 0.000000 -0.000000 -0.000000 0.000000 -0.000000 -0.000000 -0.000000 -0.000000 -21.996983 2.333482 8.104013 45.807873 4.170327 -1.912868 -26.208747 -0.800866 -0.456659 -0.000000 -0.000000 -0.000000 -0.000000 -0.000000 -0.000000 0.000001 -0.000000 -0.000000 15.861699 3.410718 1.945074 19.228934 7.527441 3.365999 19.049739 7.657296 3.800928 -47.323041 27.067676 -28.852594 39.262127 -34.801993 37.979048 -0.000001 -0.000001 -0.000000 -0.000001 -0.000001 -0.000000 -0.000001 -0.000001 -0.000000 -3.121611 -14.392986 -10.230467 -14.562995 6.814961 -66.747286 0.000003 -58.543846 -0.000004 13.133022 10.507483 -7.034945 40.231563 -29.869694 63.220654 101.357227 66.798089 231.385717 -0.000002 0.000001 -0.000003 0.338915 4.136358 -16.672031 0.573795 2.530524 -25.547843 -0.000004 -0.000000 -0.000004 -1.051991 2.744607 -36.226504 1.714828 4.142013 -44.965219 -0.000001 -0.000005 -0.000001 -3.224556 3.151154 -55.383596 2.282636 4.639949 -52.371251 -0.000001 -0.000000 -0.000001 -4.278746 3.034640 -58.928926 2.014516 4.420994 -48.977821 0.000001 -0.000001 -0.000000 0.000002 0.000003 -0.000001 -0.392652 17.683329 6.225811 -47.721862 9.660094 34.897807 0.000153 101.754485 -0.000171 -3.782687 -15.360832 17.241457 33.184266 33.896470 -6.641115 19.104956 -53.466393 25.625782 0.000001 0.000002 0.000001 0.430314 -4.130909 22.535895 3.754275 -4.568994 78.809038 -0.000001 0.000000 0.000004 3.498089 -9.251705 31.121511 5.680944 -4.543485 102.712371 0.000002 0.000001 0.000002 1.784264 -5.966299 59.751526 4.181626 -4.632871 84.132843 -0.000002 -0.000000 -0.000001 1.716419 -5.975389 62.613970 3.744639 -4.567099 78.687993 -0.000003 0.000000 0.000000 0.000001 -0.000000 0.000001 -0.000001 0.000000 -0.000000 -0.000001 0.000000 -0.000000 -0.000001 0.000000 -0.000000 -0.000001 0.000000 -0.000000 -0.000001 0.000000 -0.000000 -0.000001 0.000001 0.000001 -0.000001 0.000000 -0.000000 -0.000001 0.000000 -0.000000 -0.000001 0.000001 0.000001 -0.000000 -0.000000 -0.000000 -0.000000 -0.000000 -0.000000 -0.000000 0.000000 -0.000000 
2.752765 76.268944 92.162575 1.734531 -6.429908 -4.429749 -0.000000 -0.000000 -0.000000 -46.425182 9.329334 12.126114 37.577013 -4.657412 3.577537 -8.509967 -6.312038 -3.381452 0.000001 -0.000000 -0.000000 0.000001 -0.000000 -0.000000 -0.000000 0.000001 0.000000 -21.283834 1.991962 8.434461 45.183125 4.367923 -1.891144 -25.590984 -0.759989 -0.858956 -0.000000 -0.000000 0.000000 -0.000000 -0.000000 0.000000 -0.000001 0.000000 -0.000000 15.698017 3.398280 2.093816 18.892725 7.360075 3.379202 18.719021 7.487797 3.782730 -47.227988 26.281461 -28.461883 39.969912 -34.405152 38.024025 -0.000001 -0.000003 0.000000 -0.000001 -0.000003 0.000000 -0.000001 -0.000003 0.000000 -2.920879 -13.934226 -10.054508 -15.900429 7.130574 -67.405013 -0.000016 -55.377333 -0.000018 14.612003 10.219435 -7.765603 40.231590 -29.869688 63.220675 101.357227 66.798089 231.385717 0.000002 0.000005 0.000002 0.345258 4.157192 -16.715896 0.573124 2.529098 -25.532453 -0.000003 -0.000001 -0.000002 -1.047812 2.751443 -36.235957 1.714589 4.141782 -44.961906 -0.000000 0.000002 0.000002 -3.228424 3.148131 -55.381482 2.281634 4.639183 -52.358939 -0.000000 -0.000001 -0.000001 -4.292135 3.025730 -58.924848 2.015191 4.421572 -48.986479 -0.000000 0.000002 -0.000003 0.000000 0.000000 -0.000001 -0.415604 16.816233 7.010206 -50.064843 9.752493 34.132696 0.000083 102.015248 -0.000082 -0.832187 -16.814193 17.983345 32.697908 34.534878 -6.548618 23.673159 -54.235486 30.132916 -0.000001 0.000001 -0.000001 0.718688 -4.714160 27.043104 3.751678 -4.568501 78.776602 -0.000001 -0.000003 0.000005 4.252566 -9.772406 34.665990 5.688890 -4.541677 102.812604 -0.000001 0.000001 -0.000002 1.961990 -6.088685 61.568985 4.166826 -4.631360 83.949370 -0.000001 -0.000001 0.000002 1.641898 -5.979089 64.563517 3.670863 -4.551764 77.759928 0.000001 -0.000001 -0.000002 0.000001 0.000000 -0.000000 0.000001 0.000000 -0.000000 0.000001 0.000000 -0.000000 0.000001 0.000000 -0.000000 0.000001 0.000000 -0.000000 0.000001 0.000000 0.000000 0.000003 0.000001 0.000001 0.000001 0.000000 -0.000000 0.000001 0.000000 0.000000 0.000003 0.000001 0.000001 0.000002 -0.000000 -0.000000 0.000002 -0.000000 -0.000000 -0.000000 -0.000000 -0.000000 
2.578799 76.371437 91.513008 0.818451 -6.248597 -4.659246 0.000000 -0.000000 0.000000 -45.482069 8.408799 12.685204 38.153488 -1.045760 2.802128 -9.909250 -5.977189 -4.014932 0.000001 -0.000000 -0.000000 0.000001 -0.000000 -0.000000 -0.000000 0.000001 -0.000000 -20.758144 1.714486 8.760419 44.913811 4.586069 -1.939742 -24.886711 -0.906142 -1.116132 0.000000 -0.000000 -0.000000 0.000000 -0.000000 -0.000000 -0.000001 0.000000 0.000000 15.549795 3.357866 2.250695 18.588271 7.129564 3.367388 18.418534 7.257465 3.742486 -47.311768 25.217135 -27.825694 40.216144 -34.030683 37.590950 0.000003 -0.000001 -0.000000 0.000003 -0.000001 -0.000000 0.000003 -0.000001 -0.000000 -2.696761 -13.540295 -9.827420 -17.269367 7.585420 -67.978380 -0.000002 -52.241627 -0.000002 16.215614 9.976523 -8.505831 40.231559 -29.869681 63.220654 101.357166 66.798096 231.385745 -0.000000 0.000001 -0.000002 0.351642 4.177995 -16.759765 0.572437 2.527686 -25.517095 0.000001 -0.000001 0.000001 -1.043617 2.758275 -36.245423 1.714349 4.141539 -44.958610 0.000002 -0.000001 -0.000002 -3.232277 3.145115 -55.379375 2.280652 4.638431 -52.346659 -0.000001 0.000000 -0.000002 -4.305496 3.016831 -58.920811 2.015854 4.422151 -48.995119 -0.000002 0.000003 -0.000001 -0.000000 0.000000 0.000001 -0.400124 15.885984 7.777826 -52.330051 10.140604 33.435583 -0.000065 101.413242 0.000050 1.318796 -16.695730 18.843461 32.014425 34.183024 -6.004137 28.477285 -54.880587 34.611953 0.000000 0.000001 -0.000000 1.059959 -5.234441 31.965664 3.749973 -4.568147 78.754957 -0.000004 -0.000002 0.000003 5.025005 -10.138152 38.417967 5.695625 -4.540162 102.897619 -0.000002 0.000000 -0.000000 2.189276 -6.223744 63.172577 4.150500 -4.629597 83.747647 -0.000000 -0.000001 0.000000 1.566155 -5.997653 66.687317 3.618019 -4.540026 77.093137 -0.000000 -0.000000 -0.000002 -0.000000 -0.000000 0.000000 0.000002 0.000000 0.000001 0.000002 0.000000 0.000001 0.000002 0.000000 0.000001 0.000002 0.000000 0.000001 0.000002 0.000000 0.000001 0.000005 -0.000000 -0.000000 0.000002 0.000000 0.000001 0.000002 0.000000 0.000001 0.000005 -0.000000 -0.000000 0.000001 0.000000 0.000000 0.000001 0.000000 0.000000 0.000000 -0.000000 0.000000 
